<svg width="31" height="30" viewBox="0 0 31 30" fill="none" xmlns="http://www.w3.org/2000/svg">
<path d="M13.3871 20.3832C13.3871 21.5795 12.9684 22.5813 12.131 23.3888C11.2936 24.1963 10.2469 24.6 8.99079 24.6C7.79453 24.6 6.77771 24.1365 5.94032 23.2094C5.10294 22.2823 4.68425 21.1159 4.68425 19.7103C4.68425 18.6935 4.90855 17.572 5.35715 16.3458C5.83565 15.1197 6.44874 13.8785 7.1964 12.6225C7.97397 11.3664 8.84126 10.1253 9.79827 8.89909C10.7852 7.64302 11.7721 6.47666 12.759 5.40002L13.9702 6.38694C12.6244 7.97199 11.5029 9.57199 10.6057 11.1869C9.70855 12.8019 9.17023 14.3869 8.99079 15.9421C10.1871 16.0318 11.2188 16.4804 12.0861 17.2879C12.9534 18.0954 13.3871 19.1271 13.3871 20.3832ZM26.2618 20.3832C26.2618 21.5795 25.8431 22.5813 25.0057 23.3888C24.1684 24.1963 23.1216 24.6 21.8656 24.6C20.6693 24.6 19.6525 24.1365 18.8151 23.2094C17.9777 22.2823 17.559 21.1159 17.559 19.7103C17.559 18.6935 17.7833 17.572 18.2319 16.3458C18.7104 15.1197 19.3235 13.8785 20.0712 12.6225C20.8487 11.3664 21.716 10.1253 22.673 8.89909C23.66 7.64302 24.6469 6.47666 25.6338 5.40002L26.8001 6.38694C25.4543 7.97199 24.3328 9.57199 23.4357 11.1869C22.5684 12.8019 22.045 14.3869 21.8656 15.9421C23.0618 16.0318 24.0936 16.4804 24.9609 17.2879C25.8282 18.0954 26.2618 19.1271 26.2618 20.3832Z" fill="#25496B"/>
</svg>
