<svg width="52" height="46" viewBox="0 0 52 46" fill="none" xmlns="http://www.w3.org/2000/svg">
<path d="M26.0553 35.6V9.20001M26.0553 35.6C26.0553 30.2981 30.3534 26 35.6553 26M26.0553 35.6C26.0553 30.2981 21.7572 26 16.4553 26M26.0553 35.6C26.0553 38 26.3827 38.8886 27.2553 40.4C29.5749 44.4177 34.7123 45.7942 38.7299 43.4746C42.414 41.3476 43.8774 36.8514 42.3065 33.0217C46.7226 32.159 50.0553 28.2687 50.0553 23.6C50.0553 18.2981 45.7572 14 40.4553 14L40.4553 9.20001C40.4553 5.22355 37.2318 2 33.2553 2C29.2789 2 26.0553 5.22355 26.0553 9.20001M26.0553 35.6C26.0553 38 25.7279 38.8886 24.8553 40.4C22.5357 44.4177 17.3983 45.7942 13.3807 43.4746C9.69657 41.3476 8.23323 36.8514 9.80408 33.0217C5.38796 32.159 2.0553 28.2687 2.0553 23.6C2.0553 18.2981 6.35338 14 11.6553 14L11.6553 9.20001C11.6553 5.22355 14.8788 2 18.8553 2C22.8317 2 26.0553 5.22355 26.0553 9.20001" stroke="#0086FF" stroke-width="2.5" stroke-linecap="round" stroke-linejoin="round"/>
</svg>
