<svg width="52" height="51" viewBox="0 0 52 51" fill="none" xmlns="http://www.w3.org/2000/svg">
<path d="M2.0553 30.7944H18.1122C20.5825 30.7944 23.0528 34.4253 25.5231 34.4253C27.6582 34.4253 31.6388 32.617 33.4771 36.0337C34.0582 37.1136 33.2822 38.3474 32.1313 38.815C29.4658 39.8979 26.4967 41.369 25.5231 41.6871L18.1122 39.2665M34.1691 36.8459L45.4731 32.4153C46.1594 32.1463 46.9057 32.0586 47.6373 32.1611C50.2232 32.523 50.9537 35.842 48.75 37.2161L29.8673 48.9906C28.6755 49.7337 27.216 49.9414 25.8576 49.5611L2.0553 42.8973M19.3473 13.8504V19.9018C19.3473 23.2439 22.1123 25.9533 25.5231 25.9533C28.9338 25.9533 31.6988 23.2439 31.6988 19.9018V13.8504M19.3473 13.8504V7.79889C19.3473 4.45677 22.1123 1.74744 25.5231 1.74744C28.9338 1.74744 31.6988 4.45677 31.6988 7.79889V13.8504M19.3473 13.8504H31.6988" stroke="#0086FF" stroke-width="2.5" stroke-linecap="round" stroke-linejoin="round"/>
</svg>
