<svg width="52" height="64" viewBox="0 0 52 64" fill="none" xmlns="http://www.w3.org/2000/svg">
<path d="M17.0553 39.7962H35.0553M26.0553 31.0157V48.5767M46.0434 23.5225C48.6323 26.4692 50.0553 30.2222 50.0553 34.1032V55.8938C50.0553 59.1267 47.369 61.7474 44.0553 61.7474H8.05532C4.74161 61.7474 2.05532 59.1267 2.05532 55.8938V34.1032C2.05532 30.2222 3.47835 26.4692 6.06723 23.5225C9.23322 19.9189 13.8551 17.845 18.72 17.845H33.3907C38.2555 17.845 42.8774 19.9189 46.0434 23.5225ZM15.5553 10.5279H36.5553C39.0406 10.5279 41.0553 8.56235 41.0553 6.13768C41.0553 3.71302 39.0406 1.74744 36.5553 1.74744H15.5553C13.07 1.74744 11.0553 3.71302 11.0553 6.13768C11.0553 8.56235 13.07 10.5279 15.5553 10.5279Z" stroke="#0086FF" stroke-width="3.5" stroke-linecap="round" stroke-linejoin="round"/>
</svg>
